<?xml version="1.0" encoding="UTF-8"?>
<svg width="52px" height="52px" viewBox="0 0 52 52" version="1.1" xmlns="http://www.w3.org/2000/svg" xmlns:xlink="http://www.w3.org/1999/xlink">
    <title>形状结合</title>
    <defs>
        <linearGradient x1="100%" y1="-3.638841e-13%" x2="-5.55111512e-14%" y2="100%" id="linearGradient-1">
            <stop stop-color="#EDC889" offset="0%"></stop>
            <stop stop-color="#91652F" offset="100%"></stop>
        </linearGradient>
    </defs>
    <g id="页面-1" stroke="none" stroke-width="1" fill="none" fill-rule="evenodd">
        <g id="形状结合">
            <rect id="矩形" fill="#FFFFFF" x="0" y="0" width="52" height="52"></rect>
            <path d="M41,5 C44.3137085,5 47,7.6862915 47,11 L47,41 C47,44.3137085 44.3137085,47 41,47 L11,47 C7.6862915,47 5,44.3137085 5,41 L5,11 C5,7.6862915 7.6862915,5 11,5 L41,5 Z M40.2324219,38.0079484 L27.5034901,38.0079484 L27.5034901,40.2324219 L40.2324219,40.2324219 L40.2324219,38.0079484 Z M18.1730596,27.5034901 C14.6664837,27.5034901 11.8085938,30.3613801 11.8085938,33.867956 C11.8085938,37.3745319 14.6664837,40.2324219 18.1730596,40.2324219 C21.6796355,40.2324219 24.5375255,37.3745319 24.5375255,33.867956 C24.5375255,30.3613801 21.6796355,27.5034901 18.1730596,27.5034901 Z M18.1730596,28.4826387 L18.3340661,28.4878431 C19.6113897,28.5706838 20.6209311,29.6321592 20.6209311,30.9305102 C20.6209311,32.2829592 19.5255086,33.3783817 18.1730596,33.3783817 C16.2820789,33.3783817 14.7460395,34.9144211 14.7460395,36.8054018 C14.7460395,37.3294849 14.864025,37.8263045 15.0746761,38.2696265 C13.6925282,37.2935058 12.7877423,35.6838078 12.7877423,33.867956 C12.7877423,30.8999118 15.2050154,28.4826387 18.1730596,28.4826387 L18.1730596,28.4826387 Z M18.1730596,36.0710403 C18.5786362,36.0710403 18.9074211,36.3998252 18.9074211,36.8054018 C18.9074211,37.2109784 18.5786362,37.5397632 18.1730596,37.5397632 C17.767483,37.5397632 17.4386982,37.2109784 17.4386982,36.8054018 C17.4386982,36.3998252 17.767483,36.0710403 18.1730596,36.0710403 Z M40.2324219,32.6939283 L27.5034901,32.6939283 L27.5034901,34.9184018 L40.2324219,34.9184018 L40.2324219,32.6939283 Z M18.1730596,30.1961488 C17.767483,30.1961488 17.4386982,30.5249336 17.4386982,30.9305102 C17.4386982,31.3360869 17.767483,31.6648717 18.1730596,31.6648717 C18.5786362,31.6648717 18.9074211,31.3360869 18.9074211,30.9305102 C18.9074211,30.5249336 18.5786362,30.1961488 18.1730596,30.1961488 Z M40.2324219,27.5034901 L27.5034901,27.5034901 L27.5034901,29.7279637 L40.2324219,29.7279637 L40.2324219,27.5034901 Z M14.0330673,11.8085938 L11.8085938,11.8085938 L11.8085938,24.5375255 L14.0330673,24.5375255 L14.0330673,11.8085938 Z M19.2235054,11.8085938 L16.9990319,11.8085938 L16.9990319,24.5375255 L19.2235054,24.5375255 L19.2235054,11.8085938 Z M24.5375255,11.8085938 L22.313052,11.8085938 L22.313052,24.5375255 L24.5375255,24.5375255 L24.5375255,11.8085938 Z M40.2324219,22.313052 L27.5034901,22.313052 L27.5034901,24.5375255 L40.2324219,24.5375255 L40.2324219,22.313052 Z M40.10884,17.2461957 L34.6712381,17.2461957 L34.6712381,19.4706692 L40.10884,19.4706692 L40.10884,17.2461957 Z M32.9410921,17.2461957 L27.5034901,17.2461957 L27.5034901,19.4706692 L32.9410921,19.4706692 L32.9410921,17.2461957 Z M40.2324219,11.8085938 L27.5034901,11.8085938 L27.5034901,14.0330673 L40.2324219,14.0330673 L40.2324219,11.8085938 Z" fill="url(#linearGradient-1)"></path>
        </g>
    </g>
</svg>